<svg xmlns="http://www.w3.org/2000/svg" version="1.1" x="0px" y="0px" viewBox="0 0 30 17" xml:space="preserve"><style type="text/css">
	.st0{fill-rule:evenodd;clip-rule:evenodd;fill:#A84768;}
</style><path class="st0" d="M28 0c-1.1 0-2 0.9-2 2 0 0.1 0 0.2 0 0.3L15.3 13c-0.1 0-0.2 0-0.3 0s-0.2 0-0.3 0L4 2.3C4 2.2 4 2.1 4 2c0-1.1-0.9-2-2-2S0 0.9 0 2c0 1.1 0.9 2 2 2 0.3 0 0.5-0.1 0.7-0.1l10.4 10.4C13.1 14.5 13 14.7 13 15c0 1.1 0.9 2 2 2s2-0.9 2-2c0-0.3-0.1-0.5-0.1-0.7L27.3 3.9C27.5 3.9 27.7 4 28 4c1.1 0 2-0.9 2-2C30 0.9 29.1 0 28 0z"/></svg>