<svg xmlns="http://www.w3.org/2000/svg" version="1.1" x="0px" y="0px" viewBox="0 0 30 202" xml:space="preserve"><style type="text/css">
	.st0{fill-rule:evenodd;clip-rule:evenodd;fill:#A84768;}
</style><path class="st0" d="M14 0h2v200h-2V0z"/><path class="st0" d="M28 185c1.1 0 2 0.9 2 2 0 1.1-0.9 2-2 2 -1.1 0-2-0.9-2-2C26 185.9 26.9 185 28 185z"/><path class="st0" d="M0.9 187l1.4-1.4 14.1 14.1 -1.4 1.4L0.9 187z"/><path class="st0" d="M27.7 185.6l1.4 1.4L15 201.1l-1.4-1.4L27.7 185.6z"/><path class="st0" d="M15 198c1.1 0 2 0.9 2 2 0 1.1-0.9 2-2 2s-2-0.9-2-2C13 198.9 13.9 198 15 198z"/><path class="st0" d="M2 185c1.1 0 2 0.9 2 2 0 1.1-0.9 2-2 2s-2-0.9-2-2C0 185.9 0.9 185 2 185z"/></svg>