<svg xmlns="http://www.w3.org/2000/svg" version="1.1" x="0px" y="0px" viewBox="0 0 300 300" xml:space="preserve"><style type="text/css">
	.st0{fill:#231F20;}
</style><path class="st0" d="M150 0C67.3 0 0 67.3 0 150s67.3 150 150 150 150-67.3 150-150S232.7 0 150 0zM150 292.5C71.4 292.5 7.5 228.6 7.5 150S71.4 7.5 150 7.5 292.5 71.4 292.5 150 228.6 292.5 150 292.5zM67.8 184.7c-4.6-11-7-22.7-7-34.7s2.4-23.7 7-34.7c4.5-10.6 10.9-20.2 19.1-28.3 8.2-8.2 17.7-14.6 28.3-19.1 11-4.6 22.7-7 34.7-7 6.2 0 11.2-5 11.2-11.2 0-6.2-5-11.2-11.2-11.2 -15.1 0-29.7 3-43.5 8.8C93.2 52.7 81.3 60.8 71 71c-10.2 10.2-18.3 22.2-23.9 35.5 -5.8 13.8-8.8 28.4-8.8 43.5s3 29.7 8.8 43.5c5.6 13.3 13.7 25.2 23.9 35.5 2.2 2.2 5.1 3.3 8 3.3s5.8-1.1 8-3.3c4.4-4.4 4.4-11.5 0-15.9C78.8 204.9 72.3 195.3 67.8 184.7zM252.9 106.5C247.3 93.2 239.2 81.3 229 71c-10.3-10.2-22.2-18.3-35.5-23.9 -5.7-2.4-12.3 0.3-14.7 6 -2.4 5.7 0.3 12.3 6 14.7 10.6 4.5 20.2 10.9 28.3 19.1 8.2 8.2 14.6 17.7 19.1 28.4 4.6 11 7 22.7 7 34.7s-2.4 23.7-7 34.7c-4.5 10.6-10.9 20.2-19.1 28.3 -8.2 8.2-17.7 14.6-28.3 19.1 -11 4.6-22.7 7-34.7 7s-23.7-2.4-34.7-7c-5.7-2.4-12.3 0.3-14.7 6 -2.4 5.7 0.3 12.3 6 14.7 13.8 5.8 28.4 8.8 43.5 8.8s29.7-3 43.5-8.8c13.3-5.6 25.2-13.7 35.5-23.9 10.2-10.2 18.3-22.2 23.9-35.5 5.8-13.8 8.8-28.4 8.8-43.5S258.7 120.3 252.9 106.5zM207.1 150c0 5.5 4.5 10 10 10s10-4.5 10-10c0-10.4-2-20.5-6.1-30 -3.9-9.2-9.4-17.4-16.5-24.5 -7.1-7.1-15.3-12.6-24.5-16.5 -9.5-4-19.6-6.1-30-6.1s-20.5 2-30 6.1c-5.1 2.1-7.5 8-5.3 13.1 2.2 5.1 8 7.5 13.1 5.3 14.1-5.9 30.4-5.9 44.4 0 6.8 2.9 12.9 7 18.1 12.2 5.2 5.2 9.4 11.4 12.2 18.2C205.6 134.8 207.1 142.3 207.1 150zM150 227.1c10.4 0 20.5-2 30-6.1 9.2-3.9 17.4-9.4 24.5-16.5 7.1-7.1 12.6-15.3 16.5-24.5 2.2-5.1-0.2-11-5.3-13.1 -5.1-2.2-11 0.2-13.1 5.3 -2.9 6.8-7 12.9-12.2 18.1 -5.2 5.2-11.4 9.4-18.1 12.2 -14.1 5.9-30.4 5.9-44.4 0 -6.8-2.9-12.9-7-18.1-12.2 -5.2-5.2-9.4-11.4-12.2-18.2 -3-7-4.5-14.5-4.5-22.2s1.5-15.2 4.5-22.2c2.9-6.8 7-12.9 12.2-18.1 3.9-3.9 3.9-10.2 0-14.1 -3.9-3.9-10.2-3.9-14.1 0 -7.1 7.1-12.6 15.3-16.5 24.5 -4 9.5-6.1 19.6-6.1 30s2 20.5 6.1 30c3.9 9.2 9.4 17.4 16.5 24.5 7.1 7.1 15.3 12.6 24.5 16.5C129.5 225 139.6 227.1 150 227.1zM168.3 168.3c-2.4 2.4-5.1 4.2-8.2 5.5 -6.4 2.7-13.7 2.7-20.1 0 -4.5-1.9-9.6 0.2-11.5 4.7 -1.9 4.5 0.2 9.6 4.7 11.5 5.4 2.3 11 3.4 16.9 3.4s11.5-1.1 16.9-3.4c5.2-2.2 9.8-5.3 13.8-9.3 4-4 7.1-8.6 9.3-13.8 2.3-5.3 3.4-11 3.4-16.9s-1.1-11.5-3.4-16.9c-2.2-5.2-5.3-9.8-9.3-13.8 -4-4-8.6-7.1-13.8-9.3 -10.7-4.5-23-4.5-33.7 0 -5.2 2.2-9.8 5.3-13.8 9.3 -4 4-7.1 8.6-9.3 13.8 -2.3 5.3-3.4 11-3.4 16.9s1.1 11.5 3.4 16.9c1.9 4.4 7 6.5 11.5 4.7 4.4-1.9 6.5-7 4.7-11.5 -1.3-3.2-2-6.6-2-10.1 0-3.5 0.7-6.9 2-10.1 1.3-3.1 3.2-5.8 5.5-8.2 2.4-2.4 5.1-4.2 8.2-5.5 6.4-2.7 13.7-2.7 20.1 0 3.1 1.3 5.8 3.2 8.2 5.5 2.4 2.4 4.2 5.1 5.5 8.2 1.3 3.2 2 6.6 2 10.1 0 3.5-0.7 6.9-2 10.1C172.5 163.1 170.6 165.9 168.3 168.3z"/></svg>