<svg xmlns="http://www.w3.org/2000/svg" version="1.1" x="0px" y="0px" viewBox="0 0 300 300" xml:space="preserve"><style type="text/css">
	.st0{fill:#231F20;}
</style><path class="st0" d="M150 0C67.3 0 0 67.3 0 150s67.3 150 150 150 150-67.3 150-150S232.7 0 150 0zM150 292.5C71.4 292.5 7.5 228.6 7.5 150 7.5 80.2 58 22 124.3 9.9c1.5 6.4 5.3 11.8 10.5 15.5L61 160.9c-2.1-0.6-4.3-1-6.6-1 -13 0-23.6 10.6-23.6 23.6 0 13 10.6 23.6 23.6 23.6 5.5 0 10.5-1.9 14.5-5 0.1 0.1 0.1 0.2 0.2 0.3l12.7 11.8c0.7 0.7 1.6 1 2.6 1 1 0 2-0.4 2.7-1.2 1.4-1.5 1.3-3.9-0.2-5.3l-12.7-11.8c-0.1-0.1-0.2-0.1-0.3-0.2 1.9-2.8 3.2-6 3.7-9.5 0.2 0 0.5 0.1 0.7 0.1h17.7c2.1 0 3.8-1.7 3.8-3.8 0-2.1-1.7-3.8-3.8-3.8H78.3c-0.2 0-0.5 0-0.7 0.1 -0.9-5.6-3.7-10.6-7.9-14.1l72.4-133 -16.4 147.1h-14.5c-2.1 0-3.8 1.7-3.8 3.8 0 2.1 1.7 3.8 3.8 3.8H125l-4.3 39c-3.7 0.7-7.1 2.3-9.9 4.6 -0.1-0.1-0.1-0.2-0.2-0.3l-12.7-11.8c-1.5-1.4-3.9-1.3-5.3 0.2 -1.4 1.5-1.3 3.9 0.2 5.3l12.7 11.8c0.1 0.1 0.2 0.1 0.3 0.2 -2.5 3.8-4 8.3-4 13.1 0 13 10.6 23.6 23.6 23.6 13 0 23.6-10.6 23.6-23.6 0-2.8-0.5-5.5-1.4-8 0.2 0 0.3 0.1 0.5 0.1 0.6 0 1.2-0.1 1.7-0.4l17.3-9c1.8-1 2.6-3.2 1.6-5.1 -1-1.8-3.2-2.6-5.1-1.6l-17.3 9c-0.7 0.4-1.2 0.9-1.6 1.5 -3.3-4.6-8.1-8-13.8-9.4L152.6 30c1.4-0.1 2.7-0.4 4.1-0.7L236 166.1c-3.9 3.5-6.5 8.3-7.4 13.7 -0.2 0-0.5-0.1-0.7-0.1h-17.7c-2.1 0-3.8 1.7-3.8 3.8 0 2.1 1.7 3.8 3.8 3.8h17.7c0.2 0 0.5 0 0.7-0.1 0.2 1.5 0.6 2.9 1.1 4.3 -0.7-0.1-1.5 0-2.2 0.4l-17.3 9c-1.8 1-2.6 3.2-1.6 5.1 0.7 1.3 2 2 3.3 2 0.6 0 1.2-0.1 1.7-0.4l17.3-9c0.7-0.4 1.2-0.9 1.6-1.5 4.3 6.1 11.3 10.1 19.3 10.1 13 0 23.6-10.6 23.6-23.6 0-13-10.6-23.6-23.6-23.6 -2.5 0-5 0.4-7.2 1.1L165.7 25c4.9-3.6 8.5-9 10-15.1C242 22 292.5 80.2 292.5 150 292.5 228.6 228.6 292.5 150 292.5zM63 183.5c0 4.7-3.8 8.6-8.6 8.6s-8.6-3.8-8.6-8.6c0-4.7 3.8-8.6 8.6-8.6S63 178.8 63 183.5zM133.8 249.3c0 4.7-3.8 8.6-8.6 8.6s-8.6-3.8-8.6-8.6 3.8-8.6 8.6-8.6C129.9 240.8 133.8 244.6 133.8 249.3zM243.3 183.5c0-4.7 3.8-8.6 8.6-8.6s8.6 3.8 8.6 8.6c0 4.7-3.8 8.6-8.6 8.6S243.3 188.2 243.3 183.5zM195 187.3c2.1 0 3.8-1.7 3.8-3.8 0-2.1-1.7-3.8-3.8-3.8h-17.7c-2.1 0-3.8 1.7-3.8 3.8 0 2.1 1.7 3.8 3.8 3.8H195zM162 179.8h-17.7c-2.1 0-3.8 1.7-3.8 3.8 0 2.1 1.7 3.8 3.8 3.8H162c2.1 0 3.8-1.7 3.8-3.8C165.7 181.4 164.1 179.8 162 179.8zM195.5 208.6l-17.3 9c-1.8 1-2.6 3.2-1.6 5.1 0.7 1.3 2 2 3.3 2 0.6 0 1.2-0.1 1.7-0.4l17.3-9c1.8-1 2.6-3.2 1.6-5.1C199.6 208.4 197.3 207.6 195.5 208.6z"/></svg>