<svg xmlns="http://www.w3.org/2000/svg" version="1.1" x="0px" y="0px" viewBox="0 0 300 300" xml:space="preserve"><style type="text/css">
	.st0{fill:#231F20;}
</style><path class="st0" d="M150 0C67.3 0 0 67.3 0 150s67.3 150 150 150 150-67.3 150-150S232.7 0 150 0zM150 292.5C71.4 292.5 7.5 228.6 7.5 150S71.4 7.5 150 7.5 292.5 71.4 292.5 150 228.6 292.5 150 292.5zM201.2 102.5c0-28.3-23-51.2-51.2-51.2 -28.3 0-51.2 23-51.2 51.2 0 22.7 14.8 41.9 35.2 48.6v92.6h55.8v-30H164v-7.5h25.8v-30H164v-24.5C185.4 145.7 201.2 125.9 201.2 102.5zM150 123.8c-11.7 0-21.2-9.5-21.2-21.2s9.5-21.2 21.2-21.2c11.7 0 21.2 9.5 21.2 21.2S161.7 123.8 150 123.8z"/></svg>