<svg xmlns="http://www.w3.org/2000/svg" version="1.1" x="0px" y="0px" viewBox="0 0 300 300" xml:space="preserve"><style type="text/css">
	.st0{fill:#231F20;}
</style><path class="st0" d="M141 228.5c-4.6-0.5-9.2-1.5-13.6-2.8 -2-0.6-4.1 0.5-4.7 2.5 -0.6 2 0.5 4.1 2.5 4.7 4.8 1.5 9.8 2.5 14.9 3.1 0.1 0 0.3 0 0.4 0 1.9 0 3.5-1.4 3.7-3.3C144.5 230.6 143.1 228.7 141 228.5zM173 225.5c-4.4 1.4-9 2.3-13.5 2.9 -2.1 0.3-3.5 2.1-3.3 4.2 0.2 1.9 1.9 3.3 3.7 3.3 0.2 0 0.3 0 0.5 0 5-0.6 10-1.7 14.9-3.2 2-0.6 3.1-2.7 2.5-4.7C177.1 226 175 224.9 173 225.5zM150 0C67.3 0 0 67.3 0 150s67.3 150 150 150 150-67.3 150-150S232.7 0 150 0zM150 292.5C71.4 292.5 7.5 228.6 7.5 150S71.4 7.5 150 7.5 292.5 71.4 292.5 150 228.6 292.5 150 292.5zM234.4 159.6c0.2-2.6 0.4-5.2 0.4-7.8 0-34.1-20.3-63.6-49.4-77 0.1-1.3 0.2-2.7 0.2-4 0-19.6-16-35.6-35.6-35.6s-35.6 16-35.6 35.6c0 1.4 0.1 2.7 0.2 4 -29.1 13.4-49.4 42.9-49.4 77 0 2.6 0.2 5.2 0.4 7.8 -12.6 5.5-21.4 18-21.4 32.6 0 19.6 16 35.6 35.6 35.6 7.9 0 15.2-2.6 21.1-7 1.9 1.3 3.8 2.6 5.8 3.8 0.6 0.4 1.3 0.5 1.9 0.5 1.3 0 2.5-0.7 3.2-1.8 1.1-1.8 0.5-4.1-1.3-5.1 -1.4-0.8-2.6-1.7-4-2.6 5.5-6.3 8.8-14.4 8.8-23.4 0-19.6-16-35.6-35.6-35.6 -2.4 0-4.7 0.2-6.9 0.7 -0.1-1.8-0.2-3.7-0.2-5.5 0-30.5 17.8-57 43.6-69.5 4.8 14 18.1 24.1 33.7 24.1 15.6 0 28.9-10.1 33.7-24.1 25.8 12.5 43.6 39 43.6 69.5 0 1.9-0.1 3.7-0.2 5.5 -2.2-0.4-4.5-0.7-6.9-0.7 -19.6 0-35.6 16-35.6 35.6 0 9 3.4 17.1 8.8 23.4 -1.2 0.8-2.3 1.6-3.5 2.3 -1.8 1.1-2.3 3.4-1.3 5.1 0.7 1.2 1.9 1.8 3.2 1.8 0.7 0 1.3-0.2 1.9-0.5 1.8-1.1 3.6-2.3 5.3-3.5 5.9 4.4 13.2 7 21.1 7 19.6 0 35.6-16 35.6-35.6C255.7 177.6 246.9 165.1 234.4 159.6zM79.9 179.1c7.2 0 13.1 5.9 13.1 13.1s-5.9 13.1-13.1 13.1 -13.1-5.9-13.1-13.1S72.6 179.1 79.9 179.1zM150 83.8c-7.2 0-13.1-5.9-13.1-13.1s5.9-13.1 13.1-13.1 13.1 5.9 13.1 13.1S157.2 83.8 150 83.8zM220.1 205.3c-7.2 0-13.1-5.9-13.1-13.1s5.9-13.1 13.1-13.1 13.1 5.9 13.1 13.1S227.4 205.3 220.1 205.3z"/></svg>