<svg xmlns="http://www.w3.org/2000/svg" version="1.1" x="0px" y="0px" viewBox="0 0 300 300" xml:space="preserve"><style type="text/css">
</style><path class="st0" d="M150 0C67.3 0 0 67.3 0 150c0 58.5 33.6 109.2 82.6 133.9 0.5 0.5 1.2 0.9 1.9 1 19.8 9.7 42 15.1 65.5 15.1s45.7-5.4 65.5-15.1c0.7-0.1 1.4-0.5 1.9-1C266.4 259.2 300 208.5 300 150 300 67.3 232.7 0 150 0zM153.8 143.8c0 2.1-1.7 3.8-3.8 3.8 -2.1 0-3.8-1.7-3.8-3.8v-2.5c0-2.1 1.7-3.8 3.8-3.8 2.1 0 3.8 1.7 3.8 3.8V143.8zM153.8 124.7v4.1c0 2.1-1.7 3.7-3.8 3.7 -2.1 0-3.8-1.7-3.8-3.7v-7.5c0-2.1 1.7-3.8 3.8-3.8 7.6 0 13.8-6.2 13.8-13.8 0-7.6-6.2-13.8-13.8-13.8 -7.6 0-13.8 6.2-13.8 13.8 0 2.1-1.7 3.8-3.8 3.8 -2.1 0-3.8-1.7-3.8-3.8 0-11.7 9.5-21.2 21.2-21.2 11.7 0 21.2 9.5 21.2 21.2C171.2 114.2 163.7 122.9 153.8 124.7zM230.4 267.6v-48c0-27.7-22.4-31.9-35.8-34.4l-0.6-0.1c-14.1-2.6-19-4.1-19-9.9v-15.3c15.5-8.9 25-25.3 25-43.3V99.2c0-4.8-0.7-9.5-2-14 0 0-1.5-4.4-3-7.6 -8.1-16.8-25.2-28.4-45-28.4 -13.4 0-25.9 5.2-35.4 14.6 -4.1 4.1-7.3 8.7-9.7 13.7 -1.7 3.3-3 7.6-3 7.6 -1.3 4.5-2 9.2-2 14v17.5c0 18 9.5 34.3 25 43.3v15.3c0 5.8-4.9 7.2-19 9.9l-0.6 0.1c-13.4 2.5-35.8 6.7-35.8 34.4v48C32.1 241.9 7.5 198.8 7.5 150 7.5 71.4 71.4 7.5 150 7.5c78.6 0 142.5 63.9 142.5 142.5C292.5 198.8 267.9 241.9 230.4 267.6z"/></svg>
